<svg id="visual" viewBox="0 0 960 540" width="960" height="540" xmlns="http://www.w3.org/2000/svg" xmlns:xlink="http://www.w3.org/1999/xlink" version="1.1"><rect x="0" y="0" width="960" height="540" fill="#001220"></rect><defs><linearGradient id="grad1_0" x1="43.8%" y1="0%" x2="100%" y2="100%"><stop offset="14.444444444444446%" stop-color="#001220" stop-opacity="1"></stop><stop offset="85.55555555555554%" stop-color="#001220" stop-opacity="1"></stop></linearGradient></defs><defs><linearGradient id="grad2_0" x1="0%" y1="0%" x2="56.3%" y2="100%"><stop offset="14.444444444444446%" stop-color="#001220" stop-opacity="1"></stop><stop offset="85.55555555555554%" stop-color="#001220" stop-opacity="1"></stop></linearGradient></defs><g transform="translate(960, 0)"><path d="M0 486C-66.5 482.4 -133 478.8 -186 449C-239 419.2 -278.6 363.3 -313.2 313.2C-347.9 263.2 -377.6 219.2 -405.6 168C-433.6 116.8 -459.8 58.4 -486 0L0 0Z" fill="#FCAF3C"></path></g><g transform="translate(0, 540)"><path d="M0 -486C68.1 -483.5 136.1 -480.9 186 -449C235.8 -417.1 267.4 -355.7 308.3 -308.3C349.2 -260.9 399.4 -227.4 430.5 -178.3C461.7 -129.3 473.8 -64.6 486 0L0 0Z" fill="#FCAF3C"></path></g></svg>